# xmcd CD database file
#
# Track frame offsets:
#	182
#	18647
#	39502
#	60402
#	78562
#	97575
#	119492
#	141407
#	163657
#	186317
#	201105
#	218277
#	235610
#	256317
#	273920
#	293395
#
# Disc length: 4166 seconds
#
# Revision: 0
# Processed by: cddbd v1.5.1PL0 Copyright (c) Steve Scherf et al.
# Submitted via: CDex 1.51
#
DISCID=d5104410
DTITLE=Tony Seval y Los Gitanos - 16 exitos
DYEAR=1900
DGENRE=Merengue
TTITLE0=El Muerto
TTITLE1=Pa' bochinchar
TTITLE2=Dame un chance
TTITLE3=Que vuelvas pa' que
TTITLE4=Yo digo que no
TTITLE5=Zaida
TTITLE6=Gracias
TTITLE7=Con gusto
TTITLE8=Solo quiero
TTITLE9=Le lloro y que
TTITLE10=La maleta
TTITLE11=El chevere
TTITLE12=El bacan
TTITLE13=El timido
TTITLE14=Eche pa'lante
TTITLE15=Homenaje Tony Seval
EXTD=
EXTT0=
EXTT1=
EXTT2=
EXTT3=
EXTT4=
EXTT5=
EXTT6=
EXTT7=
EXTT8=
EXTT9=
EXTT10=
EXTT11=
EXTT12=
EXTT13=
EXTT14=
EXTT15=
PLAYORDER=
